Coordinates
version=1
nRows=13
nColumns=40
inDegrees=yes

Units are S.I. units (second, meters, Newtons, ...)
Angles are in degrees.

endheader
time	pelvis_tilt	pelvis_list	pelvis_rotation	pelvis_tx	pelvis_ty	pelvis_tz	hip_flexion_r	hip_adduction_r	hip_rotation_r	knee_angle_r	knee_angle_r_beta	ankle_angle_r	subtalar_angle_r	mtp_angle_r	hip_flexion_l	hip_adduction_l	hip_rotation_l	knee_angle_l	knee_angle_l_beta	ankle_angle_l	subtalar_angle_l	mtp_angle_l	lumbar_extension	lumbar_bending	lumbar_rotation	arm_flex_r	arm_add_r	arm_rot_r	elbow_flex_r	pro_sup_r	wrist_flex_r	wrist_dev_r	arm_flex_l	arm_add_l	arm_rot_l	elbow_flex_l	pro_sup_l	wrist_flex_l	wrist_dev_l
     52.67000000	     -3.96598477	     -6.33022756	     -0.53018004	      1.04460859	      0.92142363	      0.52867326	     13.33684390	      8.20707310	     -6.64896336	     22.44035477	     22.44035477	     15.04084561	     -5.44528834	     -1.00357237	     17.60914324	    -16.03454708	     -0.07635601	     52.74044807	     52.74044807	      5.51951785	    -18.24558692	     -7.38293395	     -8.93292727	      6.73771802	      1.39939636	      5.85994677	    -14.30593635	     -6.16871604	     27.32910494	     45.15265129	      0.00000000	      0.00000000	     20.12884362	    -11.64437044	     -2.50273679	     44.10932598	     44.49163225	      0.00000000	      0.00000000
     52.69271429	     -3.67030777	     -6.50038528	      0.18131743	      1.04481546	      0.91976956	      0.53099349	     13.21195204	      8.53694914	     -6.86402942	     23.32336955	     23.32336955	     15.60526629	     -6.39196037	     -1.16607245	     20.23507009	    -16.39258610	      1.13686497	     57.05131240	     57.05131240	      3.29761211	    -18.79571451	     -6.03763792	     -8.95896430	      6.54899336	      1.15682401	      8.45206878	    -13.92000135	     -6.13667598	     28.83082045	     45.12407921	      0.00000000	      0.00000000	     17.21752604	    -11.07993192	     -2.04830241	     41.76875898	     44.43054167	      0.00000000	      0.00000000
     52.71542857	     -3.27233588	     -6.53355075	      0.86380544	      1.04495951	      0.91831482	      0.53304266	     12.99221838	      8.77855881	     -6.77233300	     24.25849529	     24.25849529	     16.28794553	     -7.67253986	     -0.79417188	     22.81928055	    -16.11959032	      2.74208091	     61.41348084	     61.41348084	      3.68158763	    -18.87769746	      2.58418998	     -9.10593067	      6.28262359	      1.31461390	     10.87220989	    -13.85591731	     -5.38280154	     30.93067680	     45.07149876	      0.00000000	      0.00000000	     15.20822539	    -10.26386850	     -1.03338351	     37.19403676	     44.42369474	      0.00000000	      0.00000000
     52.73814286	     -2.87960170	     -6.79457752	      1.57711988	      1.04515367	      0.91664145	      0.53523817	     12.74180869	      9.21365508	     -7.07483643	     25.10967219	     25.10967219	     16.84353750	     -8.47721475	     -0.93556567	     25.01480264	    -16.45304596	      3.75363306	     64.65898556	     64.65898556	      2.05878747	    -19.12813480	      3.99757653	     -9.31495364	      6.23822655	      1.44690286	     13.61679730	    -13.74417168	     -5.40989244	     32.61504803	     45.03345088	      0.00000000	      0.00000000	     12.27987378	     -9.64801141	     -0.65410963	     35.16627634	     44.35593066	      0.00000000	      0.00000000
     52.76085714	     -2.51280936	     -6.70355526	      2.26466970	      1.04523605	      0.91536115	      0.53689863	     12.44716582	      9.35064956	     -6.92647241	     25.84455472	     25.84455472	     17.51452467	     -9.71917128	     -0.37091558	     27.11928495	    -15.93233129	      4.89870819	     67.55653844	     67.55653844	      3.51980461	    -19.23319857	     13.13259583	     -9.49477344	      5.83794554	      1.20516587	     16.19052167	    -13.53080059	     -4.64015295	     35.48401820	     44.93697203	      0.00000000	      0.00000000	     10.04644567	     -9.15976993	      0.31596207	     30.69504820	     44.31011034	      0.00000000	      0.00000000
     52.78357143	     -2.24196826	     -6.79838585	      2.96962902	      1.04516660	      0.91408682	      0.53839046	     12.24058614	      9.59260362	     -7.20377558	     26.49234393	     26.49234393	     18.01583942	    -10.45263456	     -0.05090025	     28.92876491	    -15.87307734	      5.56416769	     69.31628572	     69.31628572	      4.00238075	    -19.38836185	     16.90597416	     -9.67611228	      5.65277158	      1.26551982	     18.77950721	    -13.51147216	     -4.20527658	     38.15794035	     44.86590080	      0.00000000	      0.00000000	      7.44758414	     -8.70335218	      0.94435754	     27.99984259	     44.27003493	      0.00000000	      0.00000000
     52.80628571	     -2.13342405	     -6.90309572	      3.72464203	      1.04498544	      0.91294725	      0.53941210	     12.02118431	      9.82850177	     -7.47949629	     26.76237988	     26.76237988	     18.54749283	    -11.00364832	      0.29386380	     30.68909734	    -15.76859683	      6.07841338	     70.23205300	     70.23205300	      4.80748140	    -19.47387822	     19.75846363	     -9.59960970	      5.56966359	      1.74077914	     20.94143809	    -13.97339757	     -3.76045717	     40.69340529	     44.81407121	      0.00000000	      0.00000000	      5.06996761	     -8.20503920	      1.59968795	     26.05600526	     44.23576267	      0.00000000	      0.00000000
     52.82900000	     -1.96442460	     -6.98490975	      4.48047683	      1.04467134	      0.91238309	      0.54007961	     11.66708842	     10.01091023	     -7.85831332	     26.86146136	     26.86146136	     18.80416391	    -11.48671345	      0.35154163	     31.97655187	    -15.70301220	      6.25472185	     70.06833999	     70.06833999	      5.54787273	    -19.54595696	     20.16771460	     -9.64732742	      5.43066881	      2.02529419	     23.62565265	    -14.08196450	     -3.89813517	     42.46847246	     44.77914381	      0.00000000	      0.00000000	      2.57288465	     -7.91013541	      1.79733926	     24.78897271	     44.17867030	      0.00000000	      0.00000000
     52.85171429	     -2.01089066	     -6.90744409	      5.26794455	      1.04398021	      0.91219126	      0.53997318	     11.44527616	      9.96016905	     -8.21921645	     26.75178023	     26.75178023	     19.03958547	    -11.87486570	      0.68157109	     33.23265440	    -15.25514983	      6.29505769	     69.05861981	     69.05861981	      7.40173209	    -19.58189947	     22.49076326	     -9.66572681	      5.28570033	      2.16331666	     25.77126879	    -14.58956168	     -3.58621691	     45.92139926	     44.69296970	      0.00000000	      0.00000000	      0.00971652	     -7.76196516	      2.41402689	     23.99457235	     44.09551045	      0.00000000	      0.00000000
     52.87442857	     -2.05225139	     -6.81309811	      6.09226970	      1.04311366	      0.91257031	      0.53939204	     11.07205431	      9.84097424	     -8.73605044	     26.34961881	     26.34961881	     19.09683014	    -12.01931457	      0.81657154	     34.08872445	    -14.73083535	      6.18666473	     67.00139410	     67.00139410	      8.81117136	    -19.59455852	     22.44769296	     -9.66982236	      5.12987557	      2.26374061	     28.41391626	    -14.84166280	     -3.73540924	     47.91418750	     44.65301596	      0.00000000	      0.00000000	     -2.25214108	     -7.62197670	      2.64162762	     23.14165655	     44.03159764	      0.00000000	      0.00000000
     52.89714286	     -2.28401513	     -6.65563280	      6.94583831	      1.04189582	      0.91317108	      0.53824375	     10.85397136	      9.56115826	     -9.40944217	     25.83859096	     25.83859096	     19.08086595	    -11.95395977	      0.91534718	     34.83550711	    -13.93019499	      6.10373751	     64.08042803	     64.08042803	     10.23946405	    -19.57405042	     22.35012958	     -9.54003421	      4.93760251	      2.35800027	     30.77984451	    -15.26107922	     -3.74954230	     50.50982487	     44.59052595	      0.00000000	      0.00000000	     -4.46325328	     -7.57018389	      2.94043012	     22.93054720	     43.95364104	      0.00000000	      0.00000000
     52.91985714	     -2.59187307	     -6.42785656	      7.79896991	      1.04041808	      0.91410836	      0.53658555	     10.62855241	      9.13747141	    -10.18784559	     25.17462413	     25.17462413	     18.98545171	    -11.62586834	      0.93671503	     35.28092233	    -12.88417225	      6.10052365	     60.33526760	     60.33526760	     11.32468211	    -19.52148465	     21.64558805	     -9.44104754	      4.71899764	      2.42640722	     32.99171091	    -15.79270085	     -3.64536863	     53.57095156	     44.51171985	      0.00000000	      0.00000000	     -6.60982345	     -7.60069473	      3.35237223	     23.25900441	     43.85415401	      0.00000000	      0.00000000
     52.94257143	     -2.93883901	     -6.08479715	      8.62056304	      1.03880444	      0.91539124	      0.53450913	     10.36005462	      8.56735411	    -10.94908916	     24.41077494	     24.41077494	     18.83080181	    -11.25848155	      0.95278290	     35.33535202	    -11.60449988	      6.18119302	     55.82147725	     55.82147725	     11.91606441	    -19.40568940	     20.54236399	     -9.33753754	      4.40072004	      2.56744019	     35.20175600	    -16.34535814	     -3.59044999	     56.16662015	     44.44830734	      0.00000000	      0.00000000	     -8.43539341	     -7.66686524	      3.74308522	     23.55585881	     43.76151230	      0.00000000	      0.00000000
